<mxfile host="app.diagrams.net" modified="2023-03-27T22:58:12.834Z" agent="Mozilla/5.0 (Windows NT 10.0; Win64; x64) AppleWebKit/537.36 (KHTML, like Gecko) Chrome/110.0.0.0 Safari/537.36 OPR/96.0.0.0" etag="R7BwSqaZuShhWYII2O7V" version="21.1.1" type="github">
  <diagram id="C5RBs43oDa-KdzZeNtuy" name="Page-1">
    <mxGraphModel dx="1402" dy="777" grid="1" gridSize="10" guides="1" tooltips="1" connect="1" arrows="1" fold="1" page="1" pageScale="1" pageWidth="827" pageHeight="1169" math="0" shadow="0">
      <root>
        <mxCell id="WIyWlLk6GJQsqaUBKTNV-0" />
        <mxCell id="WIyWlLk6GJQsqaUBKTNV-1" parent="WIyWlLk6GJQsqaUBKTNV-0" />
        <mxCell id="XcJeSTGkzdX--lD4ESjz-1" value="&lt;b&gt;Image Source(s)&lt;br&gt;&lt;font style=&quot;font-size: 10px;&quot;&gt;(Sorted by animal species)&lt;/font&gt;&lt;br&gt;&lt;/b&gt;" style="shape=cylinder3;whiteSpace=wrap;html=1;boundedLbl=1;backgroundOutline=1;size=15;fillColor=#f5f5f5;fontColor=#333333;strokeColor=#666666;" vertex="1" parent="WIyWlLk6GJQsqaUBKTNV-1">
          <mxGeometry x="297" y="200" width="143" height="120" as="geometry" />
        </mxCell>
        <mxCell id="XcJeSTGkzdX--lD4ESjz-2" value="&lt;b&gt;Clean Directories, Prepare for Image Imports&lt;/b&gt;" style="rounded=0;whiteSpace=wrap;html=1;fillColor=#fff2cc;strokeColor=#d6b656;" vertex="1" parent="WIyWlLk6GJQsqaUBKTNV-1">
          <mxGeometry x="70" y="90" width="156" height="80" as="geometry" />
        </mxCell>
        <mxCell id="XcJeSTGkzdX--lD4ESjz-4" value="&lt;b&gt;Pipe Images into Appropriate Directories&lt;/b&gt;" style="rounded=0;whiteSpace=wrap;html=1;fillColor=#fff2cc;strokeColor=#d6b656;" vertex="1" parent="WIyWlLk6GJQsqaUBKTNV-1">
          <mxGeometry x="70" y="220" width="156" height="80" as="geometry" />
        </mxCell>
        <mxCell id="XcJeSTGkzdX--lD4ESjz-5" value="" style="shape=flexArrow;endArrow=classic;html=1;rounded=0;labelBackgroundColor=#54FF87;labelBorderColor=none;fillColor=#d5e8d4;strokeColor=#82b366;entryX=1;entryY=0.5;entryDx=0;entryDy=0;exitX=0;exitY=0.5;exitDx=0;exitDy=0;exitPerimeter=0;" edge="1" parent="WIyWlLk6GJQsqaUBKTNV-1" source="XcJeSTGkzdX--lD4ESjz-1" target="XcJeSTGkzdX--lD4ESjz-4">
          <mxGeometry width="50" height="50" relative="1" as="geometry">
            <mxPoint x="262" y="260" as="sourcePoint" />
            <mxPoint x="232" y="260" as="targetPoint" />
          </mxGeometry>
        </mxCell>
        <mxCell id="XcJeSTGkzdX--lD4ESjz-8" value="&lt;b&gt;Scan Directories, Remove any Corrupted Images&lt;/b&gt;" style="rounded=0;whiteSpace=wrap;html=1;fillColor=#fff2cc;strokeColor=#d6b656;" vertex="1" parent="WIyWlLk6GJQsqaUBKTNV-1">
          <mxGeometry x="70" y="350" width="156" height="80" as="geometry" />
        </mxCell>
        <mxCell id="XcJeSTGkzdX--lD4ESjz-10" value="&lt;b&gt;Model&lt;/b&gt;" style="ellipse;whiteSpace=wrap;html=1;fillColor=#dae8fc;strokeColor=#6c8ebf;" vertex="1" parent="WIyWlLk6GJQsqaUBKTNV-1">
          <mxGeometry x="720" y="90" width="130" height="90" as="geometry" />
        </mxCell>
        <mxCell id="XcJeSTGkzdX--lD4ESjz-12" value="&lt;b&gt;Output&lt;br&gt;(Animal Species)&lt;br&gt;&lt;/b&gt;" style="shape=hexagon;perimeter=hexagonPerimeter2;whiteSpace=wrap;html=1;fixedSize=1;fillColor=#ffe6cc;strokeColor=#d79b00;" vertex="1" parent="WIyWlLk6GJQsqaUBKTNV-1">
          <mxGeometry x="725" y="345" width="120" height="80" as="geometry" />
        </mxCell>
        <mxCell id="XcJeSTGkzdX--lD4ESjz-13" value="" style="shape=flexArrow;endArrow=classic;html=1;rounded=0;exitX=0.5;exitY=1;exitDx=0;exitDy=0;entryX=0.5;entryY=0;entryDx=0;entryDy=0;fillColor=#f8cecc;strokeColor=#b85450;" edge="1" parent="WIyWlLk6GJQsqaUBKTNV-1" source="XcJeSTGkzdX--lD4ESjz-10" target="XcJeSTGkzdX--lD4ESjz-11">
          <mxGeometry width="50" height="50" relative="1" as="geometry">
            <mxPoint x="470" y="315" as="sourcePoint" />
            <mxPoint x="520" y="265" as="targetPoint" />
          </mxGeometry>
        </mxCell>
        <mxCell id="XcJeSTGkzdX--lD4ESjz-14" value="" style="shape=flexArrow;endArrow=classic;html=1;rounded=0;exitX=0.5;exitY=1;exitDx=0;exitDy=0;entryX=0.5;entryY=0;entryDx=0;entryDy=0;fillColor=#f8cecc;strokeColor=#b85450;" edge="1" parent="WIyWlLk6GJQsqaUBKTNV-1" source="XcJeSTGkzdX--lD4ESjz-11" target="XcJeSTGkzdX--lD4ESjz-12">
          <mxGeometry width="50" height="50" relative="1" as="geometry">
            <mxPoint x="874.66" y="295" as="sourcePoint" />
            <mxPoint x="874.66" y="330" as="targetPoint" />
          </mxGeometry>
        </mxCell>
        <mxCell id="XcJeSTGkzdX--lD4ESjz-11" value="&lt;b&gt;Prediction&lt;br&gt;(Number)&lt;br&gt;&lt;/b&gt;" style="ellipse;whiteSpace=wrap;html=1;aspect=fixed;fillColor=#dae8fc;strokeColor=#6c8ebf;" vertex="1" parent="WIyWlLk6GJQsqaUBKTNV-1">
          <mxGeometry x="745" y="225" width="80" height="80" as="geometry" />
        </mxCell>
        <mxCell id="XcJeSTGkzdX--lD4ESjz-18" value="&lt;b&gt;User-Selected Image&lt;br&gt;&lt;/b&gt;" style="shape=cylinder3;whiteSpace=wrap;html=1;boundedLbl=1;backgroundOutline=1;size=15;fillColor=#f5f5f5;fontColor=#333333;strokeColor=#666666;" vertex="1" parent="WIyWlLk6GJQsqaUBKTNV-1">
          <mxGeometry x="920" y="87.5" width="110" height="95" as="geometry" />
        </mxCell>
        <mxCell id="XcJeSTGkzdX--lD4ESjz-19" value="" style="shape=flexArrow;endArrow=classic;html=1;rounded=0;entryX=1;entryY=0.5;entryDx=0;entryDy=0;exitX=0;exitY=0.5;exitDx=0;exitDy=0;exitPerimeter=0;fillColor=#d5e8d4;strokeColor=#82b366;" edge="1" parent="WIyWlLk6GJQsqaUBKTNV-1" source="XcJeSTGkzdX--lD4ESjz-18" target="XcJeSTGkzdX--lD4ESjz-10">
          <mxGeometry width="50" height="50" relative="1" as="geometry">
            <mxPoint x="460" y="300" as="sourcePoint" />
            <mxPoint x="510" y="250" as="targetPoint" />
          </mxGeometry>
        </mxCell>
        <mxCell id="XcJeSTGkzdX--lD4ESjz-20" value="&lt;b style=&quot;border-color: var(--border-color);&quot;&gt;Image Pre-processing&lt;/b&gt;" style="rounded=0;whiteSpace=wrap;html=1;fillColor=#fff2cc;strokeColor=#d6b656;" vertex="1" parent="WIyWlLk6GJQsqaUBKTNV-1">
          <mxGeometry x="70" y="480" width="156" height="80" as="geometry" />
        </mxCell>
        <mxCell id="XcJeSTGkzdX--lD4ESjz-21" value="&lt;font style=&quot;font-size: 21px;&quot;&gt;Data Operations&lt;/font&gt;" style="text;strokeColor=none;fillColor=none;html=1;fontSize=24;fontStyle=1;verticalAlign=middle;align=center;" vertex="1" parent="WIyWlLk6GJQsqaUBKTNV-1">
          <mxGeometry x="98" y="20" width="100" height="40" as="geometry" />
        </mxCell>
        <mxCell id="XcJeSTGkzdX--lD4ESjz-22" value="&lt;font style=&quot;font-size: 21px;&quot;&gt;Data&lt;/font&gt;" style="text;strokeColor=none;fillColor=none;html=1;fontSize=24;fontStyle=1;verticalAlign=middle;align=center;" vertex="1" parent="WIyWlLk6GJQsqaUBKTNV-1">
          <mxGeometry x="312" y="20" width="100" height="40" as="geometry" />
        </mxCell>
        <mxCell id="XcJeSTGkzdX--lD4ESjz-23" value="&lt;font style=&quot;font-size: 21px;&quot;&gt;Post-Model Training&lt;/font&gt;" style="text;strokeColor=none;fillColor=none;html=1;fontSize=24;fontStyle=1;verticalAlign=middle;align=center;" vertex="1" parent="WIyWlLk6GJQsqaUBKTNV-1">
          <mxGeometry x="735" y="20" width="100" height="40" as="geometry" />
        </mxCell>
        <mxCell id="XcJeSTGkzdX--lD4ESjz-24" value="" style="shape=flexArrow;endArrow=classic;html=1;rounded=0;entryX=0.5;entryY=0;entryDx=0;entryDy=0;exitX=0.5;exitY=1;exitDx=0;exitDy=0;fillColor=#f8cecc;strokeColor=#b85450;" edge="1" parent="WIyWlLk6GJQsqaUBKTNV-1" source="XcJeSTGkzdX--lD4ESjz-2" target="XcJeSTGkzdX--lD4ESjz-4">
          <mxGeometry width="50" height="50" relative="1" as="geometry">
            <mxPoint x="282" y="285" as="sourcePoint" />
            <mxPoint x="332" y="235" as="targetPoint" />
          </mxGeometry>
        </mxCell>
        <mxCell id="XcJeSTGkzdX--lD4ESjz-25" value="" style="shape=flexArrow;endArrow=classic;html=1;rounded=0;entryX=0.5;entryY=0;entryDx=0;entryDy=0;exitX=0.5;exitY=1;exitDx=0;exitDy=0;fillColor=#f8cecc;strokeColor=#b85450;" edge="1" parent="WIyWlLk6GJQsqaUBKTNV-1">
          <mxGeometry width="50" height="50" relative="1" as="geometry">
            <mxPoint x="147.66000000000003" y="300" as="sourcePoint" />
            <mxPoint x="147.66000000000003" y="350" as="targetPoint" />
          </mxGeometry>
        </mxCell>
        <mxCell id="XcJeSTGkzdX--lD4ESjz-26" value="" style="shape=flexArrow;endArrow=classic;html=1;rounded=0;entryX=0.5;entryY=0;entryDx=0;entryDy=0;exitX=0.5;exitY=1;exitDx=0;exitDy=0;fillColor=#f8cecc;strokeColor=#b85450;" edge="1" parent="WIyWlLk6GJQsqaUBKTNV-1">
          <mxGeometry width="50" height="50" relative="1" as="geometry">
            <mxPoint x="147.66000000000003" y="430" as="sourcePoint" />
            <mxPoint x="147.66000000000003" y="480" as="targetPoint" />
          </mxGeometry>
        </mxCell>
        <mxCell id="XcJeSTGkzdX--lD4ESjz-28" value="&lt;b style=&quot;border-color: var(--border-color);&quot;&gt;Dataset Generation&lt;br&gt;(Training &amp;amp; Testing)&lt;br&gt;&lt;/b&gt;" style="rounded=0;whiteSpace=wrap;html=1;fillColor=#fff2cc;strokeColor=#d6b656;" vertex="1" parent="WIyWlLk6GJQsqaUBKTNV-1">
          <mxGeometry x="70" y="610" width="156" height="80" as="geometry" />
        </mxCell>
        <mxCell id="XcJeSTGkzdX--lD4ESjz-29" value="" style="shape=flexArrow;endArrow=classic;html=1;rounded=0;entryX=0.5;entryY=0;entryDx=0;entryDy=0;exitX=0.5;exitY=1;exitDx=0;exitDy=0;fillColor=#f8cecc;strokeColor=#b85450;" edge="1" parent="WIyWlLk6GJQsqaUBKTNV-1">
          <mxGeometry width="50" height="50" relative="1" as="geometry">
            <mxPoint x="147.66000000000003" y="560" as="sourcePoint" />
            <mxPoint x="147.66000000000003" y="610" as="targetPoint" />
          </mxGeometry>
        </mxCell>
        <mxCell id="XcJeSTGkzdX--lD4ESjz-31" value="&lt;font style=&quot;font-size: 16px;&quot;&gt;Train&lt;/font&gt;" style="text;strokeColor=none;fillColor=none;html=1;fontSize=24;fontStyle=1;verticalAlign=middle;align=center;" vertex="1" parent="WIyWlLk6GJQsqaUBKTNV-1">
          <mxGeometry x="267" y="560" width="100" height="40" as="geometry" />
        </mxCell>
        <mxCell id="XcJeSTGkzdX--lD4ESjz-33" value="&lt;font style=&quot;font-size: 16px;&quot;&gt;Test&lt;/font&gt;" style="text;strokeColor=none;fillColor=none;html=1;fontSize=24;fontStyle=1;verticalAlign=middle;align=center;" vertex="1" parent="WIyWlLk6GJQsqaUBKTNV-1">
          <mxGeometry x="357" y="560" width="100" height="40" as="geometry" />
        </mxCell>
        <mxCell id="XcJeSTGkzdX--lD4ESjz-34" value="" style="shape=cylinder3;whiteSpace=wrap;html=1;boundedLbl=1;backgroundOutline=1;size=15;fillColor=#f5f5f5;fontColor=#333333;strokeColor=#666666;" vertex="1" parent="WIyWlLk6GJQsqaUBKTNV-1">
          <mxGeometry x="297" y="606" width="45" height="40" as="geometry" />
        </mxCell>
        <mxCell id="XcJeSTGkzdX--lD4ESjz-35" value="" style="shape=cylinder3;whiteSpace=wrap;html=1;boundedLbl=1;backgroundOutline=1;size=15;fillColor=#f5f5f5;fontColor=#333333;strokeColor=#666666;" vertex="1" parent="WIyWlLk6GJQsqaUBKTNV-1">
          <mxGeometry x="384.5" y="606" width="45" height="40" as="geometry" />
        </mxCell>
        <mxCell id="XcJeSTGkzdX--lD4ESjz-36" value="" style="shape=cylinder3;whiteSpace=wrap;html=1;boundedLbl=1;backgroundOutline=1;size=15;fillColor=#f5f5f5;fontColor=#333333;strokeColor=#666666;" vertex="1" parent="WIyWlLk6GJQsqaUBKTNV-1">
          <mxGeometry x="384.5" y="656" width="45" height="40" as="geometry" />
        </mxCell>
        <mxCell id="XcJeSTGkzdX--lD4ESjz-37" value="" style="shape=cylinder3;whiteSpace=wrap;html=1;boundedLbl=1;backgroundOutline=1;size=15;fillColor=#f5f5f5;fontColor=#333333;strokeColor=#666666;" vertex="1" parent="WIyWlLk6GJQsqaUBKTNV-1">
          <mxGeometry x="297" y="656" width="45" height="40" as="geometry" />
        </mxCell>
        <mxCell id="XcJeSTGkzdX--lD4ESjz-38" value="" style="endArrow=none;dashed=1;html=1;dashPattern=1 3;strokeWidth=2;rounded=0;" edge="1" parent="WIyWlLk6GJQsqaUBKTNV-1">
          <mxGeometry width="50" height="50" relative="1" as="geometry">
            <mxPoint x="319.16" y="706" as="sourcePoint" />
            <mxPoint x="319.16" y="746" as="targetPoint" />
          </mxGeometry>
        </mxCell>
        <mxCell id="XcJeSTGkzdX--lD4ESjz-39" value="" style="endArrow=none;dashed=1;html=1;dashPattern=1 3;strokeWidth=2;rounded=0;" edge="1" parent="WIyWlLk6GJQsqaUBKTNV-1">
          <mxGeometry width="50" height="50" relative="1" as="geometry">
            <mxPoint x="406.66" y="706" as="sourcePoint" />
            <mxPoint x="406.66" y="746" as="targetPoint" />
          </mxGeometry>
        </mxCell>
        <mxCell id="XcJeSTGkzdX--lD4ESjz-40" value="imgs_1" style="text;strokeColor=none;fillColor=none;html=1;fontSize=8;fontStyle=1;verticalAlign=middle;align=center;" vertex="1" parent="WIyWlLk6GJQsqaUBKTNV-1">
          <mxGeometry x="285.75" y="606" width="67.5" height="36" as="geometry" />
        </mxCell>
        <mxCell id="XcJeSTGkzdX--lD4ESjz-41" value="imgs_2" style="text;strokeColor=none;fillColor=none;html=1;fontSize=8;fontStyle=1;verticalAlign=middle;align=center;" vertex="1" parent="WIyWlLk6GJQsqaUBKTNV-1">
          <mxGeometry x="285.75" y="656" width="67.5" height="36" as="geometry" />
        </mxCell>
        <mxCell id="XcJeSTGkzdX--lD4ESjz-42" value="imgs_2" style="text;strokeColor=none;fillColor=none;html=1;fontSize=8;fontStyle=1;verticalAlign=middle;align=center;" vertex="1" parent="WIyWlLk6GJQsqaUBKTNV-1">
          <mxGeometry x="373.25" y="656" width="67.5" height="36" as="geometry" />
        </mxCell>
        <mxCell id="XcJeSTGkzdX--lD4ESjz-43" value="imgs_1" style="text;strokeColor=none;fillColor=none;html=1;fontSize=8;fontStyle=1;verticalAlign=middle;align=center;" vertex="1" parent="WIyWlLk6GJQsqaUBKTNV-1">
          <mxGeometry x="373.25" y="606" width="67.5" height="36" as="geometry" />
        </mxCell>
        <mxCell id="XcJeSTGkzdX--lD4ESjz-44" value="" style="shape=curlyBracket;whiteSpace=wrap;html=1;rounded=1;labelPosition=left;verticalLabelPosition=middle;align=right;verticalAlign=middle;size=0.5;" vertex="1" parent="WIyWlLk6GJQsqaUBKTNV-1">
          <mxGeometry x="247" y="560" width="20" height="180" as="geometry" />
        </mxCell>
        <mxCell id="XcJeSTGkzdX--lD4ESjz-45" value="" style="shape=curlyBracket;whiteSpace=wrap;html=1;rounded=1;flipH=1;labelPosition=right;verticalLabelPosition=middle;align=left;verticalAlign=middle;" vertex="1" parent="WIyWlLk6GJQsqaUBKTNV-1">
          <mxGeometry x="457" y="560" width="20" height="180" as="geometry" />
        </mxCell>
        <mxCell id="XcJeSTGkzdX--lD4ESjz-46" value="" style="endArrow=none;html=1;rounded=0;exitX=1;exitY=0.5;exitDx=0;exitDy=0;" edge="1" parent="WIyWlLk6GJQsqaUBKTNV-1" source="XcJeSTGkzdX--lD4ESjz-28">
          <mxGeometry width="50" height="50" relative="1" as="geometry">
            <mxPoint x="200" y="510" as="sourcePoint" />
            <mxPoint x="250" y="650" as="targetPoint" />
          </mxGeometry>
        </mxCell>
        <mxCell id="XcJeSTGkzdX--lD4ESjz-47" value="&lt;b style=&quot;font-size: 11px;&quot;&gt;Multi-Layered&lt;br&gt;Convolutional Neural Net&lt;br&gt;(CNN)&lt;/b&gt;" style="rhombus;whiteSpace=wrap;html=1;fillColor=#e1d5e7;strokeColor=#9673a6;" vertex="1" parent="WIyWlLk6GJQsqaUBKTNV-1">
          <mxGeometry x="490" y="575" width="160" height="150" as="geometry" />
        </mxCell>
        <mxCell id="XcJeSTGkzdX--lD4ESjz-48" value="" style="endArrow=classic;html=1;rounded=0;entryX=0;entryY=0.5;entryDx=0;entryDy=0;exitX=0.1;exitY=0.5;exitDx=0;exitDy=0;exitPerimeter=0;" edge="1" parent="WIyWlLk6GJQsqaUBKTNV-1" source="XcJeSTGkzdX--lD4ESjz-45" target="XcJeSTGkzdX--lD4ESjz-47">
          <mxGeometry width="50" height="50" relative="1" as="geometry">
            <mxPoint x="200" y="510" as="sourcePoint" />
            <mxPoint x="250" y="460" as="targetPoint" />
          </mxGeometry>
        </mxCell>
        <mxCell id="XcJeSTGkzdX--lD4ESjz-52" value="&lt;font style=&quot;font-size: 22px;&quot;&gt;Model Training&lt;/font&gt;" style="text;strokeColor=none;fillColor=none;html=1;fontSize=24;fontStyle=1;verticalAlign=middle;align=center;" vertex="1" parent="WIyWlLk6GJQsqaUBKTNV-1">
          <mxGeometry x="520" y="20" width="100" height="40" as="geometry" />
        </mxCell>
        <mxCell id="XcJeSTGkzdX--lD4ESjz-53" value="" style="endArrow=none;html=1;rounded=0;exitX=0.5;exitY=0;exitDx=0;exitDy=0;" edge="1" parent="WIyWlLk6GJQsqaUBKTNV-1" source="XcJeSTGkzdX--lD4ESjz-47">
          <mxGeometry width="50" height="50" relative="1" as="geometry">
            <mxPoint x="570" y="510" as="sourcePoint" />
            <mxPoint x="570" y="360" as="targetPoint" />
          </mxGeometry>
        </mxCell>
        <mxCell id="XcJeSTGkzdX--lD4ESjz-55" value="" style="endArrow=classic;html=1;rounded=0;entryX=-0.026;entryY=0.551;entryDx=0;entryDy=0;entryPerimeter=0;" edge="1" parent="WIyWlLk6GJQsqaUBKTNV-1" target="XcJeSTGkzdX--lD4ESjz-10">
          <mxGeometry width="50" height="50" relative="1" as="geometry">
            <mxPoint x="570" y="140" as="sourcePoint" />
            <mxPoint x="310" y="380" as="targetPoint" />
          </mxGeometry>
        </mxCell>
        <mxCell id="XcJeSTGkzdX--lD4ESjz-56" value="&lt;font style=&quot;font-size: 21px;&quot;&gt;User Data&lt;/font&gt;" style="text;strokeColor=none;fillColor=none;html=1;fontSize=24;fontStyle=1;verticalAlign=middle;align=center;" vertex="1" parent="WIyWlLk6GJQsqaUBKTNV-1">
          <mxGeometry x="925" y="20" width="100" height="40" as="geometry" />
        </mxCell>
        <mxCell id="XcJeSTGkzdX--lD4ESjz-62" value="&lt;font style=&quot;font-size: 13px;&quot;&gt;Model.pb&lt;/font&gt;" style="text;strokeColor=none;fillColor=none;html=1;fontSize=24;fontStyle=1;verticalAlign=middle;align=center;" vertex="1" parent="WIyWlLk6GJQsqaUBKTNV-1">
          <mxGeometry x="520" y="330" width="100" height="40" as="geometry" />
        </mxCell>
        <mxCell id="XcJeSTGkzdX--lD4ESjz-63" value="" style="endArrow=none;html=1;rounded=0;exitX=0.5;exitY=0;exitDx=0;exitDy=0;" edge="1" parent="WIyWlLk6GJQsqaUBKTNV-1">
          <mxGeometry width="50" height="50" relative="1" as="geometry">
            <mxPoint x="569.66" y="345" as="sourcePoint" />
            <mxPoint x="570" y="140" as="targetPoint" />
          </mxGeometry>
        </mxCell>
      </root>
    </mxGraphModel>
  </diagram>
</mxfile>
